<?xml version="1.0" encoding="utf-8"?>
<!-- Generator: Adobe Illustrator 23.1.1, SVG Export Plug-In . SVG Version: 6.00 Build 0)  -->
<svg version="1.1" id="Layer_1" xmlns="http://www.w3.org/2000/svg" xmlns:xlink="http://www.w3.org/1999/xlink" x="0px" y="0px"
	 viewBox="0 0 657.75 124.46" style="enable-background:new 0 0 657.75 124.46;" xml:space="preserve">
<style type="text/css">
	.st0{fill-rule:evenodd;clip-rule:evenodd;}
</style>
<g>
	<g>
		<path class="st0" d="M159.08,77.68c-14.71,10.86-36.04,16.63-54.41,16.63c-25.74,0-48.92-9.51-66.46-25.35
			c-1.38-1.24-0.15-2.94,1.51-1.98c18.92,11.01,42.33,17.64,66.5,17.64c16.31,0,34.23-3.38,50.72-10.38
			C159.43,73.18,161.51,75.88,159.08,77.68L159.08,77.68z"/>
		<path class="st0" d="M165.2,70.69c-1.88-2.41-12.44-1.14-17.18-0.57c-1.44,0.17-1.66-1.08-0.36-1.99
			c8.42-5.91,22.22-4.21,23.82-2.23c1.61,2-0.43,15.83-8.32,22.43c-1.21,1.01-2.37,0.47-1.83-0.87
			C163.11,83.03,167.08,73.1,165.2,70.69L165.2,70.69z"/>
	</g>
	<g>
		<path class="st0" d="M148.36,26.34v-5.75c0.01-0.88,0.66-1.46,1.46-1.45h25.76c0.82,0,1.49,0.6,1.49,1.45v4.93
			c-0.01,0.83-0.7,1.91-1.94,3.62l-13.34,19.05c4.95-0.12,10.19,0.63,14.69,3.16c1.01,0.57,1.29,1.41,1.37,2.24v6.13
			c0,0.84-0.92,1.82-1.9,1.31c-7.93-4.15-18.45-4.61-27.22,0.05c-0.9,0.48-1.83-0.49-1.83-1.33v-5.83c0-0.93,0.02-2.53,0.96-3.95
			l15.46-22.18h-13.46C149.02,27.79,148.36,27.2,148.36,26.34L148.36,26.34z"/>
		<path class="st0" d="M199.3,26.6c-5.78,0-6.14,7.87-6.14,12.78s-0.07,15.4,6.07,15.4c6.07,0,6.36-8.46,6.36-13.62
			c0-3.39-0.15-7.45-1.17-10.67C203.55,27.7,201.79,26.6,199.3,26.6L199.3,26.6z M199.23,18.39c11.63,0,17.92,9.99,17.92,22.68
			c0,12.27-6.95,22.01-17.92,22.01c-11.41,0-17.63-9.99-17.63-22.43C181.6,28.13,187.89,18.39,199.23,18.39L199.23,18.39z"/>
		<path class="st0" d="M135.72,62.13c-0.52,0.47-1.46,0.48-1.85,0.18c-2.68-2.07-4.49-5.22-4.49-5.22c-4.3,4.38-7.35,5.7-12.92,5.7
			c-6.6,0-11.73-4.07-11.73-12.21c0-6.36,3.44-10.69,8.36-12.81c4.25-1.87,10.19-2.21,14.73-2.72c0,0,0.38-4.91-0.95-6.7
			c-1.03-1.39-2.79-2.04-4.4-2.04c-2.91-0.01-5.72,1.57-6.27,4.61c-0.16,0.87-0.8,1.6-1.48,1.53l-7.5-0.81
			c-0.58-0.07-1.36-0.66-1.17-1.64c1.75-9.21,10.07-12,17.52-12c3.81,0,8.8,1.02,11.8,3.9c3.81,3.56,3.45,8.31,3.45,13.49V47.6
			c0,3.67,1.52,5.28,2.96,7.26c0.5,0.72,0.61,1.56-0.02,2.08C140.15,58.29,135.72,62.13,135.72,62.13L135.72,62.13z M127.82,43.03
			c0,3.05,0.07,5.6-1.46,8.31c-1.25,2.2-3.23,3.56-5.42,3.56c-3.01,0-4.77-2.29-4.77-5.68c0-6.67,5.99-7.89,11.66-7.89v1.7H127.82z"
			/>
		<path class="st0" d="M32.99,62.13c-0.52,0.47-1.47,0.48-1.85,0.18c-2.68-2.07-4.49-5.22-4.49-5.22c-4.3,4.38-7.35,5.7-12.92,5.7
			C7.13,62.79,2,58.72,2,50.58c0-6.36,3.44-10.69,8.36-12.81c4.25-1.87,10.19-2.21,14.73-2.72c0,0,0.38-4.91-0.95-6.7
			c-1.03-1.39-2.79-2.04-4.4-2.04c-2.91-0.01-5.72,1.57-6.27,4.61c-0.16,0.87-0.8,1.6-1.48,1.53l-7.5-0.81
			C3.91,31.57,3.13,30.98,3.32,30c1.75-9.21,10.07-12,17.52-12c3.81,0,8.8,1.02,11.8,3.9c3.81,3.56,3.45,8.31,3.45,13.49V47.6
			c0,3.67,1.52,5.28,2.96,7.26c0.5,0.72,0.61,1.56-0.02,2.08C37.42,58.29,32.99,62.13,32.99,62.13L32.99,62.13z M25.09,43.03
			c0,3.05,0.07,5.6-1.47,8.31c-1.25,2.2-3.23,3.56-5.42,3.56c-3,0-4.76-2.29-4.76-5.68c0-6.67,5.99-7.89,11.66-7.89v1.7H25.09z"/>
		<path class="st0" d="M55.91,39.47c0-4.65-0.22-11.09,5.41-11.09c5.56,0,4.83,6.6,4.83,11.09l0.01,21.32
			c0,0.77,0.62,1.39,1.41,1.44h7.83c0.83,0,1.51-0.64,1.51-1.45V39.47c0-2.29-0.07-5.67,0.73-7.7c0.81-2.03,2.78-3.3,4.68-3.3
			c2.27,0,4.02,0.76,4.61,3.47c0.37,1.61,0.22,5.84,0.22,7.53v21.32c0,0.77,0.62,1.39,1.41,1.44h7.83c0.84,0,1.51-0.64,1.51-1.45
			l0-25.38c0-4.32,0.51-9.22-1.98-12.61c-2.19-3.05-5.78-4.4-9.07-4.4c-4.61,0-8.92,2.37-10.83,7.45
			c-2.19-5.08-5.27-7.45-10.17-7.45c-4.83,0-8.41,2.37-10.31,7.45H55.4V20.7c0-0.81-0.66-1.46-1.46-1.46h-7.31
			c-0.81,0-1.46,0.66-1.46,1.46v40.06c0,0.81,0.66,1.46,1.46,1.46h7.83c0.81,0,1.46-0.66,1.46-1.46L55.91,39.47L55.91,39.47z"/>
		<path class="st0" d="M233.77,60.77c0,0.81-0.66,1.46-1.46,1.46h-7.83c-0.81,0-1.46-0.66-1.46-1.46V20.71
			c0-0.81,0.66-1.46,1.46-1.46h7.24c0.85,0,1.46,0.68,1.46,1.14v6.13h0.15c2.2-5.5,5.27-8.13,10.68-8.13c3.51,0,6.95,1.27,9.14,4.74
			c2.05,3.22,2.05,8.63,2.05,12.53v25.31c-0.09,0.71-0.73,1.27-1.5,1.27h-7.85c-0.73-0.05-1.31-0.58-1.39-1.27l0.01-24.3
			c0-8.13-3.12-8.37-4.91-8.37c-2.09,0-3.77,1.63-4.51,3.16c-1.1,2.46-1.27,4.97-1.27,7.68L233.77,60.77L233.77,60.77z"/>
	</g>
</g>
<g>
	<path d="M298.01,63.15c-5.15,0-9.66-1.79-13.52-5.38l-0.59,2.77c-0.17,1.12-0.81,1.68-1.93,1.68h-3.61c-1.12,0-1.68-0.56-1.68-1.68
		V1.75c0-1.12,0.56-1.68,1.68-1.68h4.96c1.12,0,1.68,0.56,1.68,1.68v21.92c4.2-3.53,8.74-5.29,13.61-5.29
		c5.43,0,9.71,1.96,12.85,5.88s4.7,9.3,4.7,16.13c0,6.89-1.65,12.4-4.96,16.55C307.89,61.08,303.5,63.15,298.01,63.15z
		 M296.08,56.44c7.73,0,11.59-5.21,11.59-15.62c0-5.32-0.94-9.27-2.81-11.84c-1.88-2.58-4.75-3.86-8.61-3.86
		c-3.98,0-7.73,1.29-11.26,3.86V52.4C288.52,55.09,292.21,56.44,296.08,56.44z"/>
	<path d="M342.02,63.49c-6.38,0-11.37-1.99-14.95-5.96c-3.58-3.98-5.38-9.52-5.38-16.63c0-7.06,1.79-12.57,5.38-16.55
		c3.58-3.98,8.57-5.96,14.95-5.96s11.37,1.99,14.95,5.96c3.58,3.98,5.38,9.49,5.38,16.55c0,7.11-1.79,12.66-5.38,16.63
		C353.39,61.5,348.41,63.49,342.02,63.49z M342.02,56.77c7.9,0,11.84-5.29,11.84-15.88c0-10.53-3.95-15.79-11.84-15.79
		c-7.9,0-11.84,5.26-11.84,15.79C330.18,51.48,334.13,56.77,342.02,56.77z"/>
	<path d="M388.22,63.49c-6.38,0-11.37-1.99-14.95-5.96c-3.58-3.98-5.38-9.52-5.38-16.63c0-7.06,1.79-12.57,5.38-16.55
		c3.58-3.98,8.57-5.96,14.95-5.96s11.37,1.99,14.95,5.96c3.58,3.98,5.38,9.49,5.38,16.55c0,7.11-1.79,12.66-5.38,16.63
		C399.59,61.5,394.61,63.49,388.22,63.49z M388.22,56.77c7.9,0,11.84-5.29,11.84-15.88c0-10.53-3.95-15.79-11.84-15.79
		c-7.9,0-11.84,5.26-11.84,15.79C376.38,51.48,380.33,56.77,388.22,56.77z"/>
	<path d="M417.96,62.23c-1.12,0-1.68-0.56-1.68-1.68V1.75c0-1.12,0.56-1.68,1.68-1.68h4.96c1.12,0,1.68,0.56,1.68,1.68v36.46
		l17.3-17.47c0.45-0.45,0.88-0.74,1.3-0.88c0.42-0.14,0.97-0.21,1.64-0.21h5.38c0.84,0,1.26,0.34,1.26,1.01
		c0,0.45-0.22,0.9-0.67,1.34l-18.14,17.89l19.57,19.99c0.45,0.45,0.67,0.9,0.67,1.34c0,0.67-0.42,1.01-1.26,1.01h-5.88
		c-1.29,0-2.27-0.39-2.94-1.18L424.6,42.07v18.48c0,1.12-0.56,1.68-1.68,1.68C422.92,62.23,417.96,62.23,417.96,62.23z"/>
	<path d="M488.93,63.08c-6.61,0-11.66-1.89-15.16-5.67s-5.25-9.25-5.25-16.42c0-7.11,1.81-12.61,5.42-16.51
		c3.61-3.89,8.72-5.84,15.33-5.84c3.02,0,5.99,0.53,8.9,1.6c0.62,0.22,1.05,0.5,1.3,0.84s0.38,0.9,0.38,1.68v2.27
		c0,1.12-0.37,1.68-1.09,1.68c-0.28,0-0.73-0.08-1.34-0.25c-2.3-0.67-4.62-1.01-6.97-1.01c-4.7,0-8.09,1.19-10.16,3.57
		s-3.11,6.17-3.11,11.38v1.09c0,5.1,1.05,8.83,3.15,11.21c2.1,2.38,5.42,3.57,9.95,3.57c2.35,0,4.87-0.39,7.56-1.18
		c0.62-0.17,1.04-0.25,1.26-0.25c0.73,0,1.09,0.56,1.09,1.68v2.27c0,0.73-0.11,1.26-0.34,1.6c-0.22,0.34-0.67,0.64-1.34,0.92
		C495.76,62.5,492.57,63.08,488.93,63.08z"/>
	<path d="M517.74,62.58c-2.97,0-5.24-0.85-6.8-2.56c-1.57-1.71-2.35-4.16-2.35-7.35V1.68c0-1.12,0.56-1.68,1.68-1.68h4.96
		c1.12,0,1.68,0.56,1.68,1.68v50.48c0,1.29,0.26,2.23,0.8,2.81c0.53,0.59,1.41,0.88,2.65,0.88c0.34,0,0.69-0.03,1.05-0.08
		c0.36-0.06,0.68-0.08,0.97-0.08c0.56,0,0.94,0.14,1.13,0.42c0.2,0.28,0.29,0.7,0.29,1.26v2.69c0,0.56-0.13,1-0.38,1.3
		c-0.25,0.31-0.69,0.55-1.3,0.71C520.71,62.41,519.25,62.58,517.74,62.58z"/>
	<path d="M543.69,63.42c-3.98,0-7.03-1.12-9.16-3.36c-2.13-2.24-3.19-5.4-3.19-9.49V21.25c0-1.12,0.56-1.68,1.68-1.68h4.96
		c1.12,0,1.68,0.56,1.68,1.68v26.63c0,3.02,0.59,5.25,1.76,6.68c1.18,1.43,3.05,2.14,5.63,2.14c4.03,0,8.09-1.34,12.18-4.03V21.25
		c0-1.12,0.56-1.68,1.68-1.68h4.96c1.12,0,1.68,0.56,1.68,1.68v39.23c0,1.12-0.56,1.68-1.68,1.68h-3.61c-0.56,0-1-0.11-1.3-0.34
		c-0.31-0.22-0.52-0.64-0.63-1.26l-0.59-2.94C554.53,61.49,549.18,63.42,543.69,63.42z"/>
	<path d="M600.48,63.08c-5.15,0-9.66-1.79-13.52-5.38l-0.59,2.77c-0.17,1.12-0.81,1.68-1.93,1.68h-3.61c-1.12,0-1.68-0.56-1.68-1.68
		V1.68c0-1.12,0.56-1.68,1.68-1.68h4.96c1.12,0,1.68,0.56,1.68,1.68V23.6c4.2-3.53,8.74-5.29,13.61-5.29
		c5.43,0,9.72,1.96,12.85,5.88c3.14,3.92,4.7,9.3,4.7,16.13c0,6.89-1.65,12.4-4.96,16.55C610.36,61.01,605.96,63.08,600.48,63.08z
		 M598.55,56.36c7.73,0,11.59-5.21,11.59-15.62c0-5.32-0.94-9.27-2.81-11.84c-1.88-2.58-4.75-3.86-8.61-3.86
		c-3.98,0-7.73,1.29-11.26,3.86v23.44C590.98,55.02,594.68,56.36,598.55,56.36z"/>
	<path d="M639.45,63.42c-4.7,0-8.93-0.78-12.68-2.35c-0.67-0.28-1.13-0.59-1.39-0.92s-0.38-0.87-0.38-1.6V56.2
		c0-1.01,0.34-1.51,1.01-1.51c0.39,0,1.09,0.17,2.1,0.5c3.7,1.18,7.53,1.76,11.51,1.76c2.74,0,4.83-0.53,6.26-1.6
		c1.43-1.06,2.14-2.6,2.14-4.62c0-1.34-0.43-2.44-1.3-3.28s-2.45-1.68-4.75-2.52l-7.14-2.69c-6.22-2.3-9.32-6.22-9.32-11.76
		c0-3.64,1.41-6.58,4.24-8.82s6.54-3.36,11.13-3.36c3.64,0,7.19,0.64,10.67,1.93c0.67,0.22,1.15,0.52,1.43,0.88
		c0.28,0.37,0.42,0.91,0.42,1.64v2.27c0,1.01-0.37,1.51-1.09,1.51c-0.39,0-1.04-0.14-1.93-0.42c-2.97-0.9-5.99-1.34-9.07-1.34
		c-5.38,0-8.06,1.82-8.06,5.46c0,1.46,0.45,2.6,1.34,3.44c0.9,0.84,2.66,1.76,5.29,2.77l6.55,2.52c3.3,1.29,5.68,2.81,7.14,4.58
		c1.46,1.76,2.18,4.05,2.18,6.85c0,3.98-1.48,7.14-4.45,9.49C648.33,62.24,644.38,63.42,639.45,63.42z"/>
</g>
<g>
	<path d="M412.03,114.3c-4.11,0-7.21-1.13-9.31-3.4c-2.1-2.27-3.15-5.62-3.15-10.06c0-4.24,1.05-7.54,3.15-9.89s5.04-3.53,8.81-3.53
		c3.17,0,5.61,0.89,7.31,2.68s2.55,4.31,2.55,7.59c0,1.07-0.08,2.15-0.25,3.25c-0.07,0.4-0.17,0.67-0.33,0.8
		c-0.15,0.13-0.39,0.2-0.73,0.2h-15.72c0.07,2.87,0.78,4.99,2.13,6.36s3.45,2.05,6.28,2.05c1,0,1.96-0.07,2.88-0.2
		s2.08-0.42,3.48-0.85c0.23-0.07,0.43-0.13,0.6-0.18s0.32-0.08,0.45-0.08c0.43,0,0.65,0.3,0.65,0.9v1.4c0,0.43-0.07,0.74-0.2,0.93
		c-0.13,0.18-0.42,0.38-0.85,0.58c-1,0.43-2.2,0.78-3.58,1.05C414.83,114.16,413.43,114.3,412.03,114.3z M416.84,98.63
		c0.03-0.27,0.05-0.7,0.05-1.3c0-2.04-0.48-3.57-1.43-4.61c-0.95-1.03-2.34-1.55-4.18-1.55c-2.1,0-3.74,0.63-4.91,1.88
		s-1.84,3.11-2,5.58C404.37,98.63,416.84,98.63,416.84,98.63z"/>
	<path d="M433.33,114.2c-2.37,0-4.26-0.68-5.68-2.03c-1.42-1.35-2.13-3.16-2.13-5.43c0-2.44,0.87-4.38,2.6-5.83
		c1.74-1.45,4.07-2.18,7.01-2.18c1.87,0,3.97,0.28,6.31,0.85v-3.3c0-1.8-0.41-3.07-1.23-3.81c-0.82-0.73-2.21-1.1-4.18-1.1
		c-2.3,0-4.56,0.33-6.76,1c-0.77,0.23-1.25,0.35-1.45,0.35c-0.4,0-0.6-0.3-0.6-0.9v-1.35c0-0.43,0.07-0.75,0.2-0.95
		s0.4-0.38,0.8-0.55c1.03-0.47,2.34-0.84,3.93-1.13c1.58-0.28,3.16-0.43,4.73-0.43c3.17,0,5.51,0.66,7.01,1.98s2.25,3.33,2.25,6.03
		v17.12c0,0.67-0.33,1-1,1H443c-0.63,0-1-0.32-1.1-0.95l-0.25-1.65c-1.2,1.03-2.53,1.84-3.98,2.4
		C436.21,113.91,434.77,114.2,433.33,114.2z M434.54,110.44c1.1,0,2.25-0.22,3.46-0.65c1.2-0.43,2.35-1.07,3.45-1.9v-5.11
		c-1.8-0.43-3.57-0.65-5.31-0.65c-3.77,0-5.66,1.45-5.66,4.36c0,1.27,0.35,2.25,1.05,2.93C432.23,110.1,433.23,110.44,434.54,110.44
		z"/>
	<path d="M454.01,113.55c-0.67,0-1-0.33-1-1V89.16c0-0.67,0.33-1,1-1h2.2c0.33,0,0.59,0.07,0.78,0.2c0.18,0.13,0.31,0.38,0.38,0.75
		l0.35,2.8c0.9-0.97,1.75-1.74,2.55-2.3c0.8-0.57,1.63-0.98,2.48-1.25s1.76-0.4,2.73-0.4c0.4,0,0.8,0.02,1.2,0.05
		c0.57,0.07,0.85,0.37,0.85,0.9v2.7c0,0.6-0.3,0.9-0.9,0.9c-0.3,0-0.59-0.02-0.88-0.05c-0.28-0.03-0.59-0.05-0.93-0.05
		c-2.67,0-4.96,0.8-6.86,2.4v17.73c0,0.67-0.33,1-1,1h-2.95V113.55z"/>
	<path d="M476.64,113.8c-1.77,0-3.12-0.51-4.06-1.53c-0.93-1.02-1.4-2.48-1.4-4.38v-30.4c0-0.67,0.33-1,1-1h2.95c0.67,0,1,0.33,1,1
		v30.09c0,0.77,0.16,1.33,0.48,1.68s0.84,0.53,1.58,0.53c0.2,0,0.41-0.02,0.62-0.05c0.22-0.03,0.41-0.05,0.58-0.05
		c0.33,0,0.56,0.08,0.68,0.25s0.18,0.42,0.18,0.75v1.6c0,0.33-0.08,0.59-0.23,0.78c-0.15,0.18-0.41,0.33-0.78,0.43
		C478.41,113.7,477.55,113.8,476.64,113.8z"/>
	<path d="M487.06,124.46c-1.07,0-2.02-0.12-2.85-0.35c-0.4-0.1-0.68-0.27-0.83-0.5s-0.23-0.57-0.23-1v-1.3
		c0-0.63,0.25-0.95,0.75-0.95c0.17,0,0.42,0.03,0.75,0.1s0.78,0.1,1.35,0.1c1.23,0,2.21-0.31,2.93-0.93s1.36-1.71,1.93-3.28
		l0.95-2.55l-9.66-23.83c-0.23-0.57-0.35-0.97-0.35-1.2c0-0.4,0.23-0.6,0.7-0.6h3c0.53,0,0.9,0.08,1.1,0.25s0.4,0.53,0.6,1.1
		l7.01,19.43l6.76-19.43c0.2-0.57,0.4-0.93,0.6-1.1s0.57-0.25,1.1-0.25h2.8c0.47,0,0.7,0.2,0.7,0.6c0,0.23-0.12,0.63-0.35,1.2
		l-11,28.03c-0.9,2.3-1.95,3.96-3.15,4.96C490.46,123.96,488.93,124.46,487.06,124.46z"/>
	<path d="M528.77,114.2c-2.37,0-4.26-0.68-5.68-2.03s-2.13-3.16-2.13-5.43c0-2.44,0.87-4.38,2.6-5.83c1.74-1.45,4.07-2.18,7.01-2.18
		c1.87,0,3.97,0.28,6.31,0.85v-3.3c0-1.8-0.41-3.07-1.23-3.81c-0.82-0.73-2.21-1.1-4.18-1.1c-2.3,0-4.56,0.33-6.76,1
		c-0.77,0.23-1.25,0.35-1.45,0.35c-0.4,0-0.6-0.3-0.6-0.9v-1.35c0-0.43,0.07-0.75,0.2-0.95s0.4-0.38,0.8-0.55
		c1.03-0.47,2.34-0.84,3.93-1.13c1.58-0.28,3.16-0.43,4.73-0.43c3.17,0,5.51,0.66,7.01,1.98s2.25,3.33,2.25,6.03v17.12
		c0,0.67-0.33,1-1,1h-2.15c-0.63,0-1-0.32-1.1-0.95l-0.25-1.65c-1.2,1.03-2.53,1.84-3.98,2.4
		C531.65,113.91,530.2,114.2,528.77,114.2z M529.97,110.44c1.1,0,2.25-0.22,3.46-0.65c1.2-0.43,2.35-1.07,3.45-1.9v-5.11
		c-1.8-0.43-3.57-0.65-5.31-0.65c-3.77,0-5.66,1.45-5.66,4.36c0,1.27,0.35,2.25,1.05,2.93C527.67,110.1,528.67,110.44,529.97,110.44
		z"/>
	<path d="M559.31,114.1c-3.94,0-6.95-1.13-9.04-3.38c-2.09-2.25-3.13-5.52-3.13-9.79c0-4.24,1.08-7.52,3.23-9.84
		c2.15-2.32,5.2-3.48,9.14-3.48c1.8,0,3.57,0.32,5.31,0.95c0.37,0.13,0.63,0.3,0.78,0.5s0.23,0.53,0.23,1v1.35c0,0.67-0.22,1-0.65,1
		c-0.17,0-0.43-0.05-0.8-0.15c-1.37-0.4-2.75-0.6-4.16-0.6c-2.8,0-4.82,0.71-6.06,2.13s-1.85,3.68-1.85,6.78v0.65
		c0,3.04,0.63,5.27,1.88,6.68c1.25,1.42,3.23,2.13,5.93,2.13c1.4,0,2.9-0.23,4.51-0.7c0.37-0.1,0.62-0.15,0.75-0.15
		c0.43,0,0.65,0.33,0.65,1v1.35c0,0.43-0.07,0.75-0.2,0.95s-0.4,0.38-0.8,0.55C563.38,113.75,561.48,114.1,559.31,114.1z"/>
	<path d="M581.14,114.1c-3.94,0-6.95-1.13-9.04-3.38c-2.09-2.25-3.13-5.52-3.13-9.79c0-4.24,1.08-7.52,3.23-9.84
		c2.15-2.32,5.2-3.48,9.14-3.48c1.8,0,3.57,0.32,5.31,0.95c0.37,0.13,0.63,0.3,0.78,0.5s0.23,0.53,0.23,1v1.35c0,0.67-0.22,1-0.65,1
		c-0.17,0-0.43-0.05-0.8-0.15c-1.37-0.4-2.75-0.6-4.16-0.6c-2.8,0-4.82,0.71-6.06,2.13s-1.85,3.68-1.85,6.78v0.65
		c0,3.04,0.63,5.27,1.88,6.68c1.25,1.42,3.23,2.13,5.93,2.13c1.4,0,2.9-0.23,4.51-0.7c0.37-0.1,0.62-0.15,0.75-0.15
		c0.43,0,0.65,0.33,0.65,1v1.35c0,0.43-0.07,0.75-0.2,0.95s-0.4,0.38-0.8,0.55C585.21,113.75,583.31,114.1,581.14,114.1z"/>
	<path d="M603.27,114.3c-4.11,0-7.21-1.13-9.31-3.4c-2.1-2.27-3.15-5.62-3.15-10.06c0-4.24,1.05-7.54,3.15-9.89
		c2.1-2.35,5.04-3.53,8.81-3.53c3.17,0,5.61,0.89,7.31,2.68s2.55,4.31,2.55,7.59c0,1.07-0.08,2.15-0.25,3.25
		c-0.07,0.4-0.17,0.67-0.33,0.8c-0.15,0.13-0.39,0.2-0.73,0.2H595.6c0.07,2.87,0.78,4.99,2.13,6.36s3.45,2.05,6.28,2.05
		c1,0,1.96-0.07,2.88-0.2s2.08-0.42,3.48-0.85c0.23-0.07,0.43-0.13,0.6-0.18s0.32-0.08,0.45-0.08c0.43,0,0.65,0.3,0.65,0.9v1.4
		c0,0.43-0.07,0.74-0.2,0.93c-0.13,0.18-0.42,0.38-0.85,0.58c-1,0.43-2.2,0.78-3.58,1.05C606.07,114.16,604.68,114.3,603.27,114.3z
		 M608.08,98.63c0.03-0.27,0.05-0.7,0.05-1.3c0-2.04-0.48-3.57-1.43-4.61c-0.95-1.03-2.34-1.55-4.18-1.55
		c-2.1,0-3.74,0.63-4.91,1.88s-1.84,3.11-2,5.58C595.61,98.63,608.08,98.63,608.08,98.63z"/>
	<path d="M624.9,114.3c-2.8,0-5.32-0.47-7.56-1.4c-0.4-0.17-0.68-0.35-0.83-0.55s-0.23-0.52-0.23-0.95V110c0-0.6,0.2-0.9,0.6-0.9
		c0.23,0,0.65,0.1,1.25,0.3c2.2,0.7,4.49,1.05,6.86,1.05c1.63,0,2.88-0.32,3.73-0.95s1.28-1.55,1.28-2.75c0-0.8-0.26-1.45-0.78-1.95
		s-1.46-1-2.83-1.5l-4.26-1.6c-3.71-1.37-5.56-3.71-5.56-7.01c0-2.17,0.84-3.92,2.53-5.26c1.69-1.33,3.9-2,6.63-2
		c2.17,0,4.29,0.38,6.36,1.15c0.4,0.13,0.68,0.31,0.85,0.53s0.25,0.54,0.25,0.98v1.35c0,0.6-0.22,0.9-0.65,0.9
		c-0.23,0-0.62-0.08-1.15-0.25c-1.77-0.53-3.57-0.8-5.41-0.8c-3.2,0-4.81,1.08-4.81,3.25c0,0.87,0.27,1.55,0.8,2.05
		c0.53,0.5,1.58,1.05,3.15,1.65l3.91,1.5c1.97,0.77,3.39,1.68,4.26,2.73s1.3,2.41,1.3,4.08c0,2.37-0.88,4.26-2.65,5.66
		C630.2,113.6,627.84,114.3,624.9,114.3z"/>
	<path d="M646.03,114.3c-2.8,0-5.32-0.47-7.56-1.4c-0.4-0.17-0.68-0.35-0.83-0.55s-0.23-0.52-0.23-0.95V110c0-0.6,0.2-0.9,0.6-0.9
		c0.23,0,0.65,0.1,1.25,0.3c2.2,0.7,4.49,1.05,6.86,1.05c1.63,0,2.88-0.32,3.73-0.95s1.28-1.55,1.28-2.75c0-0.8-0.26-1.45-0.78-1.95
		s-1.46-1-2.83-1.5l-4.26-1.6c-3.71-1.37-5.56-3.71-5.56-7.01c0-2.17,0.84-3.92,2.53-5.26c1.69-1.33,3.9-2,6.63-2
		c2.17,0,4.29,0.38,6.36,1.15c0.4,0.13,0.68,0.31,0.85,0.53s0.25,0.54,0.25,0.98v1.35c0,0.6-0.22,0.9-0.65,0.9
		c-0.23,0-0.62-0.08-1.15-0.25c-1.77-0.53-3.57-0.8-5.41-0.8c-3.2,0-4.81,1.08-4.81,3.25c0,0.87,0.27,1.55,0.8,2.05
		c0.53,0.5,1.58,1.05,3.15,1.65l3.91,1.5c1.97,0.77,3.39,1.68,4.26,2.73s1.3,2.41,1.3,4.08c0,2.37-0.88,4.26-2.65,5.66
		C651.33,113.6,648.97,114.3,646.03,114.3z"/>
</g>
</svg>
